<?xml version="1.0" encoding="UTF-8"?>
<svg version="1.1" xmlns="http://www.w3.org/2000/svg" width="256" height="256">
<path d="M0 0 C27.74039927 -0.66844336 56.50401572 8.68599199 77.40625 27.125 C78.21320313 27.80046875 79.02015625 28.4759375 79.8515625 29.171875 C102.80968524 48.89139108 117.03537036 76.93387953 119.40625 107.125 C121.10317891 138.4765118 112.50917704 167.76328411 92.40625 192.125 C91.76042969 192.92292969 91.11460937 193.72085938 90.44921875 194.54296875 C85.39166431 200.52756983 79.61445753 205.37033612 73.40625 210.125 C72.23642578 211.03572266 72.23642578 211.03572266 71.04296875 211.96484375 C61.08963062 219.34202377 49.84676606 224.52895556 38.15625 228.5 C37.46080078 228.73855713 36.76535156 228.97711426 36.04882812 229.22290039 C6.3263267 238.80376729 -26.01851081 233.78344108 -53.28125 219.8125 C-82.32359971 203.61854275 -101.72205839 177.56840645 -110.734375 145.8671875 C-112.96373628 136.15933248 -113.95620417 126.83586126 -113.90625 116.875 C-113.90061035 115.68986816 -113.8949707 114.50473633 -113.88916016 113.28369141 C-113.45218414 81.62672631 -99.60783302 53.43115182 -77.27709961 31.39038086 C-56.31298082 11.49603053 -28.60489926 1.37854936 0 0 Z M-67.59375 32.125 C-68.52832031 32.89585938 -69.46289062 33.66671875 -70.42578125 34.4609375 C-92.47670026 53.52033323 -104.94638475 81.21024495 -107.46875 110 C-108.67272583 139.51209038 -99.62786128 167.2482099 -80.03125 189.4375 C-78.56002595 191.00748091 -77.0812821 192.57046195 -75.59375 194.125 C-74.97113281 194.81078125 -74.34851563 195.4965625 -73.70703125 196.203125 C-55.31411681 215.79138609 -26.97688972 226.11763236 -0.6015625 227.25390625 C29.00862693 227.79688038 56.83802302 217.4606208 78.33422852 197.15454102 C79.70469039 195.82475122 81.05597102 194.47527898 82.40625 193.125 C83.13328125 192.39796875 83.8603125 191.6709375 84.609375 190.921875 C105.89910854 168.29105589 113.50425192 138.61065307 112.58544922 108.24902344 C110.90062123 78.87700854 95.65727707 52.3337725 74.27099609 32.74414062 C60.81656254 21.06178879 43.705286 13.01472407 26.40625 9.125 C25.40980469 8.90070312 24.41335937 8.67640625 23.38671875 8.4453125 C-8.68157138 2.43508097 -42.61026744 11.28800897 -67.59375 32.125 Z " fill="#3DBED2" transform="translate(127.59375,10.875)"/>
<path d="M0 0 C7.95287255 4.12895106 14.75613949 8.82554388 21.38354492 14.89013672 C22.05514648 15.44701172 22.72674805 16.00388672 23.41870117 16.57763672 C25.13354492 18.07763672 25.13354492 18.07763672 27.38354492 20.89013672 C27.11874001 26.02931346 25.06445037 30.17696692 22.84838867 34.71826172 C22.49144424 35.46613953 22.13449982 36.21401733 21.76673889 36.98455811 C20.62525897 39.37322403 19.47373468 41.75686294 18.32104492 44.14013672 C16.8265357 47.24778244 15.33712353 50.35784672 13.84838867 53.46826172 C13.47886078 54.23553589 13.10933289 55.00281006 12.72860718 55.79333496 C10.7888661 59.84453555 8.92071925 63.91421744 7.14575195 68.04052734 C6.78679337 68.87187195 6.42783478 69.70321655 6.05799866 70.55975342 C5.37466125 72.15430378 4.70060354 73.75287152 4.03709412 75.35577393 C3.23135558 77.23630469 2.31604016 79.06913063 1.38354492 80.89013672 C0.39354492 81.22013672 -0.59645508 81.55013672 -1.61645508 81.89013672 C-2.02782715 81.16761719 -2.43919922 80.44509766 -2.86303711 79.70068359 C-10.63826214 66.05146683 -18.44214931 52.42169785 -26.37670898 38.86425781 C-31.44726653 30.19645272 -36.46569355 21.49916489 -41.46826172 12.79199219 C-42.05341553 11.77508301 -42.63856934 10.75817383 -43.24145508 9.71044922 C-43.80219727 8.73495117 -44.36293945 7.75945313 -44.94067383 6.75439453 C-47.07431577 3.10755782 -49.29845093 -0.48059103 -51.55004883 -4.05566406 C-52.61645508 -6.10986328 -52.61645508 -6.10986328 -52.61645508 -9.10986328 C-36.51661762 -14.47647577 -14.69776028 -7.28972607 0 0 Z " fill="#27C6DE" transform="translate(173.616455078125,42.10986328125)"/>
<path d="M0 0 C-1.65412799 4.53125486 -3.89705771 8.61861118 -6.25 12.8125 C-6.90427979 13.98449951 -6.90427979 13.98449951 -7.57177734 15.18017578 C-11.75625866 22.63719202 -16.0707874 30.01719191 -20.39453125 37.39404297 C-25.06903866 45.37714661 -29.67107776 53.39939315 -34.25 61.4375 C-40.08303733 71.67535291 -45.98032759 81.87074354 -52 92 C-56.18878318 88.21916788 -58.63083211 84.50357563 -61.0625 79.4375 C-61.40684082 78.73149658 -61.75118164 78.02549316 -62.10595703 77.2980957 C-68.44261894 64.03493103 -71.39117657 50.93986898 -71.3125 36.25 C-71.30839111 34.6882605 -71.30839111 34.6882605 -71.30419922 33.0949707 C-71.04107272 13.56160909 -71.04107272 13.56160909 -66 6 C-63.38795471 5.41145325 -63.38795471 5.41145325 -60.03735352 5.10864258 C-58.78588028 4.98874466 -57.53440704 4.86884674 -56.24501038 4.74531555 C-54.87300423 4.62805279 -53.50096873 4.511133 -52.12890625 4.39453125 C-50.72636747 4.26547194 -49.32393777 4.13522201 -47.9216156 4.00382996 C-44.22649628 3.66102569 -40.53006221 3.3352115 -36.83312988 3.01263428 C-33.07460822 2.68135659 -29.31769495 2.33277228 -25.56054688 1.98632812 C-20.07177365 1.48361983 -14.58255827 0.9864899 -9.09204102 0.50317383 C-7.98554703 0.40563309 -6.87905304 0.30809235 -5.73902893 0.20759583 C-3 0 -3 0 0 0 Z " fill="#27C6DE" transform="translate(106,92)"/>
<path d="M0 0 C34.32 0 68.64 0 104 0 C100.58041093 17.09794536 84.32925392 32.68201166 70.26806641 42.16845703 C60.36681728 48.49187416 49.73944264 53.60419643 38 55 C37.20442708 53.8984375 36.40885417 52.796875 35.61328125 51.6953125 C35.0937085 50.97593506 34.57413574 50.25655762 34.03881836 49.51538086 C32.87154498 47.89909269 31.70439331 46.28271661 30.53735352 44.66625977 C27.5823616 40.57366904 24.62584311 36.48221236 21.6640625 32.39453125 C18.43440755 27.93564298 15.21470832 23.4696736 12 19 C11.42701172 18.20480957 10.85402344 17.40961914 10.26367188 16.59033203 C8.5663168 14.23062918 6.87591722 11.86610357 5.1875 9.5 C4.66534912 8.77546631 4.14319824 8.05093262 3.60522461 7.30444336 C0 2.22944823 0 2.22944823 0 0 Z " fill="#23C6E0" transform="translate(113,166)"/>
<path d="M0 0 C4.16448299 3.76614114 6.63118626 7.46249704 9.0625 12.5 C9.40684082 13.20487549 9.75118164 13.90975098 10.10595703 14.63598633 C19.28819862 33.92043355 21.43204919 54.81702186 16.9765625 75.58984375 C16.78747314 76.50117065 16.59838379 77.41249756 16.40356445 78.35144043 C15.94242493 80.56912875 15.47449994 82.78513913 15 85 C8.51272317 85.7009846 2.02460239 86.39374355 -4.46411133 87.08129883 C-6.66254658 87.3151681 -8.86079636 87.55078885 -11.05883789 87.78833008 C-24.70006998 89.26112231 -38.28822978 90.46061783 -52 91 C-50.575794 87.19037936 -48.82091117 83.75596032 -46.796875 80.23046875 C-45.83189087 78.5451001 -45.83189087 78.5451001 -44.84741211 76.82568359 C-44.14840128 75.61288279 -43.44926061 74.40015681 -42.75 73.1875 C-42.0252852 71.92540022 -41.30075976 70.66319169 -40.57641602 69.40087891 C-35.50377247 60.57032403 -30.3857221 51.76631252 -25.24145508 42.97729492 C-22.13254621 37.66441154 -19.03891597 32.3431811 -15.96875 27.0078125 C-15.63122208 26.42144012 -15.29369415 25.83506775 -14.94593811 25.23092651 C-13.3152709 22.39718764 -11.68655932 19.56234693 -10.06030273 16.72607422 C-6.81277438 11.07769614 -3.49593201 5.49832785 0 0 Z " fill="#27C6DE" transform="translate(207,72)"/>
<path d="M0 0 C3.06480422 3.77804207 5.99963365 7.63942502 8.875 11.5625 C9.34478271 12.2030835 9.81456543 12.84366699 10.29858398 13.50366211 C14.90318581 19.81450352 19.38076441 26.21246174 23.84570312 32.62255859 C27.89678424 38.4372763 31.99109836 44.21794592 36.15649414 49.95141602 C39 53.8929033 39 53.8929033 39 55 C4.02 55 -30.96 55 -67 55 C-62.05416318 45.10832636 -58.20908653 37.85813612 -51 30 C-50.17757812 29.08476563 -49.35515625 28.16953125 -48.5078125 27.2265625 C-35.24394079 13.1755174 -18.76174144 4.36027064 0 0 Z " fill="#26C7E0" transform="translate(110,34)"/>
<path d="M0 0 C4.00486271 1.33495424 4.40525637 2.9740875 6.44140625 6.625 C6.76504654 7.1987738 7.08868683 7.77254761 7.4221344 8.3637085 C8.47720017 10.23795936 9.5196273 12.11894221 10.5625 14 C11.29108209 15.29780341 12.02074215 16.59500221 12.75146484 17.89160156 C13.84095149 19.82508497 14.92981442 21.75888503 16.01525879 23.69464111 C18.66179364 28.41440255 21.36302639 33.09707313 24.125 37.75 C24.89993433 39.05978063 25.67466947 40.36967913 26.44921875 41.6796875 C26.84931152 42.35612305 27.2494043 43.03255859 27.66162109 43.72949219 C32.22766625 51.47561038 36.74208352 59.25224806 41.26611328 67.02294922 C42.40944301 68.98602478 43.55362946 70.94860166 44.69873047 72.91064453 C46.25954691 75.58506937 47.81764375 78.26105918 49.375 80.9375 C50.08064087 82.1447876 50.08064087 82.1447876 50.80053711 83.37646484 C54 88.88573941 54 88.88573941 54 90 C24.99840414 90.95219282 0.71911605 85.6408226 -21.25 65.5 C-22.83594326 64.00275974 -24.41972992 62.50322683 -26 61 C-21.78369005 49.49104531 -16.83290159 38.32831257 -11.875 27.125 C-10.65491672 24.36012216 -9.43568368 21.59487064 -8.21658325 18.82955933 C-7.46383862 17.12293878 -6.7103651 15.41663945 -5.95602417 13.71072388 C-3.94147113 9.15254625 -1.95368308 4.58461234 0 0 Z " fill="#27C6DE" transform="translate(87,133)"/>
<path d="M0 0 C34.32 0 68.64 0 104 0 C103.67 1.65 103.34 3.3 103 5 C102.505 3.515 102.505 3.515 102 2 C52.995 2.495 52.995 2.495 3 3 C3.33 4.32 3.66 5.64 4 7 C0 2.25 0 2.25 0 0 Z " fill="#66A8B3" transform="translate(113,166)"/>
<path d="M0 0 C0.99 0.33 1.98 0.66 3 1 C-2.28 6.28 -7.56 11.56 -13 17 C-13.33 16.34 -13.66 15.68 -14 15 C-9.53648711 9.77674023 -4.9255107 4.79077028 0 0 Z " fill="#4AB8C9" transform="translate(54,39)"/>
</svg>
